<?xml version="1.0" encoding="utf-8"?>
<!-- Generator: Adobe Illustrator 21.0.2, SVG Export Plug-In . SVG Version: 6.00 Build 0)  -->
<svg version="1.1" xmlns="http://www.w3.org/2000/svg" xmlns:xlink="http://www.w3.org/1999/xlink" x="0px" y="0px"
	 viewBox="0 0 829.6 381" style="enable-background:new 0 0 829.6 381;" xml:space="preserve">
<style type="text/css">
	.st0{fill:#FDB714;}
	.st1{fill:#469343;}
	.st2{fill:#116282;}
	.st3{fill:#0194D3;}
	.st4{fill:#005695;}
	.st5{display:none;}
	.st6{display:inline;}
	.st7{fill:#FFDD00;}
	.st8{fill:#00703C;}
</style>
<g id="Layer_1">
	<path class="st0" d="M199.2,108.8c3-3.8,4.8-8.5,4.8-13.7c0-12.1-9.8-22-22-22c-12.1,0-22,9.8-22,22c0,8,4.3,14.9,10.6,18.8l0,0
		c-50.1,19-71.3,86.4-25.6,116.2c26.5,11,40.9-2.5,47.4-11c-5.5,2.5-9,2.5-15,1.5c-75.9-12.4-21.2-133.6,69.4-69.4
		c7.9,5,13.4,6.3,18.8,0.8c5.4-5.4,4-13.9-1.5-18.4C241,116.1,218.9,108.9,199.2,108.8z"/>
	<path class="st1" d="M273.1,216.8c3.8,3,8.5,4.8,13.7,4.8c12.1,0,22-9.8,22-22c0-12.1-9.8-22-22-22c-8,0-14.9,4.3-18.8,10.6l0,0
		c-19-50.1-86.4-71.3-116.2-25.6c-11,26.5,2.5,40.9,11,47.4c-2.5-5.5-2.5-9-1.5-15c12.4-75.9,133.6-21.2,69.4,69.4
		c-5,7.9-6.3,13.4-0.8,18.8c5.4,5.4,13.9,4,18.4-1.5C265.8,258.7,273,236.5,273.1,216.8z"/>
	<path class="st2" d="M163.3,289c-3.1,3.7-5,8.4-5.2,13.6c-0.3,12.1,9.3,22.2,21.4,22.5c12.1,0.3,22.2-9.3,22.5-21.4
		c0.2-8-3.9-15-10.1-19.1l0,0c50.5-17.7,73.5-84.5,28.6-115.5c-26.2-11.7-41,1.4-47.7,9.7c5.6-2.4,9-2.3,15-1.1
		c75.5,14.4,17.7,134.1-71.2,67.6c-7.8-5.2-13.2-6.6-18.8-1.3c-5.6,5.3-4.4,13.8,1,18.5C121.6,280.6,143.6,288.4,163.3,289z"/>
	<path class="st3" d="M92.1,181.8c-3.8-3-8.5-4.8-13.7-4.8c-12.1,0-22,9.8-22,22c0,12.1,9.8,22,22,22c8,0,14.9-4.3,18.8-10.6
		c0,0,0,0,0,0c19,50.1,86.4,71.3,116.2,25.6c11-26.5-2.5-40.9-11-47.4c2.5,5.5,2.5,9,1.5,15c-12.4,75.9-133.6,21.2-69.4-69.4
		c5-7.9,6.3-13.4,0.8-18.8c-5.4-5.4-13.9-4-18.4,1.5C99.4,139.9,92.2,162.1,92.1,181.8z"/>
	<g>
		<path class="st4" d="M324.4,115.5h13.4c13.4,0,24.1,8.3,24.1,22.3c0,15.2-9.2,23-24.1,23h-13.4V115.5z M330.9,155.1h6.8
			c11.2,0,17.3-5.4,17.3-17.1c0-10.6-7.2-16.8-16.6-16.8h-7.6V155.1z"/>
		<polygon class="st4" points="366.1,115.5 391.4,115.5 391.4,121.2 372.6,121.2 372.6,134.5 389.8,134.5 389.8,140.2 372.6,140.2 
			372.6,155.1 391.4,155.1 391.4,160.8 366.1,160.8 		"/>
		<polygon class="st4" points="420.5,160.8 412.4,160.8 395.4,115.5 402.6,115.5 416.6,155.1 416.7,155.1 431.1,115.5 437.9,115.5 
					"/>
		<polygon class="st4" points="441.7,115.5 467,115.5 467,121.2 448.1,121.2 448.1,134.5 465.4,134.5 465.4,140.2 448.1,140.2 
			448.1,155.1 467,155.1 467,160.8 441.7,160.8 		"/>
		<polygon class="st4" points="474.3,115.5 480.8,115.5 480.8,155.1 499.7,155.1 499.7,160.8 474.3,160.8 		"/>
		<path class="st4" d="M522.7,114.7c13.8,0,21.8,10,21.8,23.4c0,13.8-8,23.4-21.8,23.4c-13.8,0-21.8-9.7-21.8-23.4
			C500.8,124.7,508.9,114.7,522.7,114.7z M522.7,155.9c10.4,0,14.9-8.7,14.9-17.7c0-9.2-4.9-17.8-14.9-17.7
			c-10-0.1-14.9,8.5-14.9,17.7C507.7,147.2,512.2,155.9,522.7,155.9z"/>
		<path class="st4" d="M550.6,115.5h11.9c9.3,0,17,3.2,17,13.6c0,10.1-7.9,13.6-16,13.6h-6.4v18.1h-6.5V115.5z M557.1,137h6.4
			c4,0,9.1-2,9.1-8c0-5.7-6-7.8-10-7.8h-5.5V137z"/>
		<polygon class="st4" points="584.7,115.5 595.4,115.5 609.6,153.2 623.5,115.5 634.2,115.5 634.2,160.8 627.8,160.8 627.8,121.6 
			627.6,121.6 612.6,160.8 606.3,160.8 591.3,121.6 591.1,121.6 591.1,160.8 584.7,160.8 		"/>
		<polygon class="st4" points="642.2,115.5 667.6,115.5 667.6,121.2 648.7,121.2 648.7,134.5 665.9,134.5 665.9,140.2 648.7,140.2 
			648.7,155.1 667.6,155.1 667.6,160.8 642.2,160.8 		"/>
		<polygon class="st4" points="674.8,115.5 683.6,115.5 703.6,152 703.8,152 703.8,115.5 710.2,115.5 710.2,160.8 701.9,160.8 
			681.4,123.6 681.3,123.6 681.3,160.8 674.8,160.8 		"/>
		<polygon class="st4" points="728.9,121.2 714.9,121.2 714.9,115.5 749.5,115.5 749.5,121.2 735.4,121.2 735.4,160.8 728.9,160.8 
					"/>
		<path class="st4" d="M378.1,185.7c-4.7-3-9.7-4.6-18.3-4.6c-15.4,0-25.6,11.2-25.6,26c0,15.6,11.3,26,25.1,26
			c6.6,0,8.3-0.7,10.7-1.1v-20.2h-14V204h23.6v34.6c-3.6,1.2-9.9,3-20.3,3c-21.1,0-35.1-13.5-35.1-34.7c0-20.5,14.9-34.1,35.2-34.1
			c9.7,0,14,1.4,19.5,3.3L378.1,185.7z"/>
		<path class="st4" d="M413.3,173.9h10l28.1,66.6h-10.4l-6.8-16.8h-32.6l-6.8,16.8h-10L413.3,173.9z M418,182.9l-13.3,33h26.5
			L418,182.9z"/>
		<polygon class="st4" points="463,182.3 442.3,182.3 442.3,173.9 493.3,173.9 493.3,182.3 472.6,182.3 472.6,240.5 463,240.5 		"/>
		<polygon class="st4" points="503.2,173.9 540.5,173.9 540.5,182.3 512.8,182.3 512.8,201.8 538,201.8 538,210.1 512.8,210.1 
			512.8,232.1 540.5,232.1 540.5,240.5 503.2,240.5 		"/>
		<polygon class="st4" points="547.5,173.9 557.9,173.9 573.9,230.9 574.1,230.9 588.3,173.9 601.8,173.9 616.2,230.9 616.4,230.9 
			632.3,173.9 642.4,173.9 621.9,240.5 609.6,240.5 595.1,182.3 594.9,182.3 580.4,240.5 567.6,240.5 		"/>
		<path class="st4" d="M659.8,173.9h10l28.1,66.6h-10.4l-6.8-16.8h-32.6l-6.8,16.8h-10L659.8,173.9z M664.4,182.9l-13.3,33h26.5
			L664.4,182.9z"/>
		<polygon class="st4" points="713.7,212.6 687.7,173.9 698.8,173.9 718.7,203.8 738,173.9 749.2,173.9 723.2,212.6 723.2,240.5 
			713.7,240.5 		"/>
	</g>
	<g>
		<path class="st3" d="M336.4,291.3c-2.1,0-3.9-0.2-5.4-0.7c-1.5-0.4-2.9-1-4.2-1.6v-4.8h0.3c1.3,1.2,2.7,2.1,4.3,2.8
			c1.6,0.7,3.2,1,4.7,1c2.1,0,3.7-0.4,4.8-1.3c1.1-0.9,1.6-2.1,1.6-3.5c0-1.2-0.3-2.1-0.9-2.8c-0.6-0.7-1.5-1.3-2.7-1.6
			c-0.9-0.3-1.7-0.5-2.5-0.6c-0.7-0.2-1.7-0.4-2.8-0.7c-1-0.3-1.9-0.6-2.7-1c-0.8-0.4-1.5-0.9-2.1-1.6c-0.6-0.6-1.1-1.4-1.4-2.3
			c-0.3-0.9-0.5-1.9-0.5-3c0-2.4,0.9-4.3,2.8-5.9c1.8-1.6,4.2-2.4,7-2.4c1.6,0,3.2,0.2,4.6,0.5c1.4,0.3,2.8,0.8,4,1.4v4.6h-0.3
			c-0.9-0.8-2.1-1.6-3.5-2.2c-1.4-0.6-3-0.9-4.5-0.9c-1.8,0-3.2,0.4-4.3,1.3c-1.1,0.8-1.7,1.9-1.7,3.3c0,1.2,0.3,2.2,1,2.9
			c0.7,0.7,1.6,1.3,2.8,1.6c0.8,0.2,1.8,0.5,3,0.8c1.2,0.3,2.2,0.5,2.9,0.8c2,0.6,3.5,1.5,4.4,2.8c0.9,1.2,1.4,2.8,1.4,4.6
			c0,1.1-0.2,2.2-0.7,3.4c-0.5,1.1-1.1,2-1.9,2.8c-0.9,0.8-2,1.5-3.2,1.9C339.6,291,338.2,291.3,336.4,291.3z"/>
		<path class="st3" d="M368.4,279.9c0,3.7-0.9,6.5-2.7,8.5c-1.8,2-4.1,3-7.1,3c-3,0-5.4-1-7.1-3.1c-1.7-2.1-2.6-4.9-2.6-8.4
			c0-3.6,0.9-6.5,2.7-8.5c1.8-2,4.1-3,7.1-3c2.9,0,5.3,1,7.1,3C367.5,273.4,368.4,276.2,368.4,279.9z M364.6,279.9
			c0-2.8-0.5-4.9-1.5-6.3c-1-1.4-2.5-2.1-4.4-2.1c-1.9,0-3.4,0.7-4.4,2.1c-1,1.4-1.6,3.5-1.6,6.3c0,2.7,0.5,4.8,1.6,6.2
			c1,1.4,2.5,2.1,4.4,2.1c1.9,0,3.3-0.7,4.4-2.1C364.1,284.7,364.6,282.6,364.6,279.9z"/>
		<path class="st3" d="M376,290.7h-3.7v-30.3h3.7V290.7z"/>
		<path class="st3" d="M398.5,290.7h-3.7v-2.4c-1.1,1-2.2,1.7-3.2,2.3c-1,0.5-2.1,0.8-3.4,0.8c-1,0-1.8-0.2-2.7-0.5
			c-0.8-0.3-1.6-0.8-2.2-1.5c-0.6-0.7-1.1-1.5-1.5-2.6c-0.3-1-0.5-2.3-0.5-3.7V269h3.7v12.4c0,1.2,0,2.1,0.1,2.9
			c0.1,0.8,0.3,1.4,0.6,2c0.3,0.6,0.7,1,1.2,1.2c0.5,0.3,1.3,0.4,2.2,0.4c0.9,0,1.9-0.3,2.9-0.8c1-0.5,1.9-1.1,2.8-1.9V269h3.7
			V290.7z"/>
		<path class="st3" d="M410.5,291.2c-2,0-3.6-0.6-4.7-1.7c-1.1-1.1-1.7-2.9-1.7-5.4V272h-2.5v-3h2.5v-6.3h3.7v6.3h6.7v3h-6.7v10.4
			c0,1.1,0,2,0.1,2.6c0,0.6,0.2,1.2,0.4,1.7c0.2,0.5,0.6,0.8,1.1,1c0.5,0.2,1.2,0.3,2,0.3c0.6,0,1.2-0.1,1.7-0.3
			c0.6-0.2,1-0.3,1.2-0.4h0.2v3.3c-0.7,0.2-1.4,0.3-2.1,0.5C411.7,291.1,411.1,291.2,410.5,291.2z"/>
		<path class="st3" d="M421.4,265.3h-4.2v-3.8h4.2V265.3z M421.1,290.7h-3.7V269h3.7V290.7z"/>
		<path class="st3" d="M444.5,279.9c0,3.7-0.9,6.5-2.7,8.5c-1.8,2-4.1,3-7.1,3c-3,0-5.4-1-7.1-3.1c-1.7-2.1-2.6-4.9-2.6-8.4
			c0-3.6,0.9-6.5,2.7-8.5c1.8-2,4.1-3,7.1-3c2.9,0,5.3,1,7.1,3C443.7,273.4,444.5,276.2,444.5,279.9z M440.8,279.9
			c0-2.8-0.5-4.9-1.5-6.3c-1-1.4-2.5-2.1-4.4-2.1c-1.9,0-3.4,0.7-4.4,2.1c-1,1.4-1.5,3.5-1.5,6.3c0,2.7,0.5,4.8,1.5,6.2
			c1,1.4,2.5,2.1,4.4,2.1c1.9,0,3.3-0.7,4.4-2.1C440.2,284.7,440.8,282.6,440.8,279.9z"/>
		<path class="st3" d="M465.5,290.7h-3.7v-12.4c0-1,0-1.9-0.1-2.8c-0.1-0.9-0.3-1.6-0.6-2.1c-0.3-0.5-0.7-1-1.2-1.2
			c-0.5-0.3-1.3-0.4-2.2-0.4c-0.9,0-1.9,0.2-2.8,0.7c-1,0.5-1.9,1.1-2.8,1.9v16.3h-3.7V269h3.7v2.4c1.1-1,2.2-1.7,3.2-2.2
			c1.1-0.5,2.2-0.8,3.4-0.8c2.1,0,3.8,0.7,5,2.1c1.2,1.4,1.8,3.5,1.8,6.1V290.7z"/>
		<path class="st3" d="M476.7,291.3c-1.5,0-2.8-0.2-4.1-0.6c-1.3-0.4-2.3-0.8-3.1-1.2v-4.1h0.2c0.3,0.2,0.7,0.5,1.1,0.8
			c0.4,0.3,1,0.6,1.7,0.9c0.6,0.3,1.3,0.5,2.1,0.8c0.7,0.2,1.5,0.3,2.3,0.3c0.6,0,1.2-0.1,1.9-0.2c0.7-0.1,1.2-0.3,1.5-0.5
			c0.5-0.3,0.8-0.6,1-1c0.2-0.3,0.3-0.8,0.3-1.5c0-0.9-0.2-1.5-0.7-2c-0.5-0.4-1.3-0.8-2.5-1.1c-0.5-0.1-1.1-0.3-1.8-0.4
			c-0.8-0.2-1.4-0.3-2.1-0.5c-1.7-0.5-2.9-1.2-3.6-2.2c-0.8-1-1.1-2.2-1.1-3.7c0-2,0.7-3.6,2.2-4.8c1.5-1.2,3.5-1.9,5.9-1.9
			c1.2,0,2.4,0.1,3.6,0.4c1.2,0.3,2.3,0.7,3.1,1.1v3.9h-0.2c-0.9-0.7-2-1.3-3.1-1.8c-1.2-0.4-2.3-0.6-3.5-0.6
			c-1.2,0-2.2,0.3-3.1,0.8c-0.8,0.5-1.2,1.3-1.2,2.3c0,0.9,0.2,1.6,0.7,2c0.5,0.4,1.3,0.8,2.4,1.1c0.5,0.1,1.2,0.3,1.8,0.4
			c0.7,0.1,1.4,0.3,2.1,0.5c1.6,0.4,2.8,1.1,3.6,2c0.8,0.9,1.2,2.2,1.2,3.8c0,0.9-0.2,1.8-0.6,2.7c-0.4,0.8-0.9,1.6-1.6,2.2
			c-0.8,0.7-1.7,1.1-2.6,1.5C479.4,291.1,478.2,291.3,476.7,291.3z"/>
		<path class="st3" d="M507.9,291.2c-2,0-3.6-0.6-4.7-1.7c-1.1-1.1-1.7-2.9-1.7-5.4V272h-2.5v-3h2.5v-6.3h3.7v6.3h6.7v3h-6.7v10.4
			c0,1.1,0,2,0.1,2.6c0,0.6,0.2,1.2,0.4,1.7c0.2,0.5,0.6,0.8,1.1,1c0.5,0.2,1.2,0.3,2,0.3c0.6,0,1.2-0.1,1.7-0.3
			c0.6-0.2,1-0.3,1.2-0.4h0.2v3.3c-0.7,0.2-1.4,0.3-2.1,0.5C509.2,291.1,508.5,291.2,507.9,291.2z"/>
		<path class="st3" d="M531.9,290.7h-3.7v-12.4c0-1,0-1.9-0.1-2.8c-0.1-0.9-0.3-1.6-0.6-2.1c-0.3-0.5-0.7-1-1.2-1.2
			c-0.5-0.3-1.3-0.4-2.2-0.4c-0.9,0-1.9,0.2-2.8,0.7c-1,0.5-1.9,1.1-2.8,1.9v16.3h-3.7v-30.3h3.7v11c1.1-1,2.2-1.7,3.2-2.2
			c1.1-0.5,2.2-0.8,3.4-0.8c2.1,0,3.8,0.7,5,2.1c1.2,1.4,1.8,3.5,1.8,6.1V290.7z"/>
		<path class="st3" d="M549.4,288.4c-0.3,0.2-0.7,0.5-1.2,0.9c-0.5,0.4-1,0.7-1.5,0.9c-0.7,0.3-1.3,0.6-1.9,0.8
			c-0.6,0.2-1.5,0.3-2.5,0.3c-0.9,0-1.7-0.2-2.6-0.5c-0.8-0.3-1.5-0.8-2.1-1.4c-0.6-0.6-1.1-1.3-1.4-2.2c-0.4-0.9-0.5-1.8-0.5-2.8
			c0-1.5,0.3-2.8,1-3.9c0.6-1.1,1.6-1.9,3-2.5c1.2-0.6,2.7-0.9,4.3-1.2c1.7-0.2,3.5-0.4,5.4-0.5v-0.7c0-0.9-0.1-1.6-0.4-2.1
			c-0.3-0.5-0.6-0.9-1.1-1.2c-0.5-0.3-1-0.5-1.7-0.6c-0.7-0.1-1.4-0.1-2.1-0.1c-0.8,0-1.8,0.1-3,0.4c-1.1,0.3-2.3,0.6-3.4,1.1h-0.2
			v-3.7c0.7-0.2,1.6-0.4,2.9-0.6c1.3-0.2,2.5-0.4,3.7-0.4c1.5,0,2.8,0.1,3.8,0.4c1,0.2,1.9,0.7,2.8,1.3c0.8,0.6,1.4,1.4,1.8,2.3
			c0.4,0.9,0.6,2.1,0.6,3.5v14.9h-3.6V288.4z M549.4,285.4v-6c-0.9,0.1-2,0.2-3.3,0.3c-1.3,0.1-2.4,0.3-3.2,0.6
			c-1,0.3-1.8,0.8-2.4,1.4c-0.6,0.6-1,1.5-1,2.6c0,1.2,0.4,2.2,1.1,2.8c0.7,0.6,1.7,1,3.1,1c1.2,0,2.2-0.3,3.1-0.8
			C547.7,286.7,548.6,286.1,549.4,285.4z"/>
		<path class="st3" d="M564.9,291.2c-2,0-3.6-0.6-4.7-1.7c-1.1-1.1-1.7-2.9-1.7-5.4V272h-2.5v-3h2.5v-6.3h3.7v6.3h6.7v3h-6.7v10.4
			c0,1.1,0,2,0.1,2.6c0,0.6,0.2,1.2,0.4,1.7c0.2,0.5,0.6,0.8,1.1,1c0.5,0.2,1.2,0.3,2,0.3c0.6,0,1.2-0.1,1.7-0.3
			c0.6-0.2,1-0.3,1.2-0.4h0.2v3.3c-0.7,0.2-1.4,0.3-2.1,0.5C566.1,291.1,565.5,291.2,564.9,291.2z"/>
		<path class="st3" d="M593.8,291.3c-3.5,0-6.2-1-8.1-2.9c-1.9-2-2.9-4.7-2.9-8.3c0-3.5,0.9-6.4,2.8-8.5c1.9-2.1,4.3-3.2,7.3-3.2
			c1.4,0,2.5,0.2,3.6,0.6c1,0.4,1.9,1,2.7,1.8c0.8,0.8,1.4,1.8,1.8,3.1c0.4,1.2,0.6,2.7,0.6,4.4v2h-15.1c0,2.5,0.6,4.5,1.9,5.8
			c1.3,1.3,3,2,5.3,2c0.8,0,1.6-0.1,2.4-0.3c0.8-0.2,1.5-0.4,2.1-0.7c0.7-0.3,1.2-0.6,1.7-0.9c0.5-0.3,0.8-0.5,1.1-0.8h0.2v4
			c-0.4,0.2-1,0.4-1.6,0.6c-0.6,0.3-1.2,0.4-1.7,0.6c-0.7,0.2-1.4,0.3-1.9,0.4C595.5,291.2,594.7,291.3,593.8,291.3z M598.1,277.4
			c0-1-0.1-1.8-0.4-2.6c-0.2-0.7-0.5-1.3-0.9-1.8c-0.4-0.5-1-1-1.6-1.2c-0.7-0.3-1.5-0.4-2.5-0.4c-1,0-1.8,0.1-2.5,0.4
			c-0.7,0.3-1.3,0.7-1.9,1.3c-0.5,0.6-1,1.2-1.2,1.9c-0.3,0.7-0.5,1.5-0.5,2.4H598.1z"/>
		<path class="st3" d="M630.2,290.7v-12.6c0-1,0-1.9-0.1-2.8c-0.1-0.9-0.2-1.5-0.5-2c-0.3-0.5-0.6-0.9-1.1-1.1
			c-0.5-0.2-1.1-0.4-1.9-0.4c-0.8,0-1.6,0.2-2.4,0.7c-0.9,0.5-1.8,1.1-2.7,2c0,0.2,0,0.5,0,0.8c0,0.3,0,0.7,0,1.1v14.3h-3.7v-12.6
			c0-1,0-1.9-0.1-2.8c-0.1-0.9-0.2-1.5-0.5-2c-0.3-0.5-0.6-0.9-1.1-1.1c-0.5-0.2-1.1-0.4-1.9-0.4c-0.8,0-1.6,0.2-2.5,0.7
			c-0.9,0.5-1.7,1.1-2.5,1.9v16.3h-3.7V269h3.7v2.4c1-1,1.9-1.7,2.9-2.2c0.9-0.5,2-0.8,3.1-0.8c1.3,0,2.4,0.3,3.4,0.9
			c1,0.6,1.7,1.5,2.3,2.9c1.1-1.2,2.2-2.2,3.2-2.8c1.1-0.6,2.2-1,3.4-1c0.9,0,1.8,0.1,2.6,0.4c0.8,0.3,1.4,0.8,2,1.4
			c0.6,0.7,1,1.5,1.4,2.5c0.3,1,0.5,2.2,0.5,3.7v14.3H630.2z"/>
		<path class="st3" d="M657.4,279.3c0,3.6-0.9,6.5-2.6,8.7c-1.7,2.2-3.9,3.2-6.6,3.2c-1.1,0-2-0.1-2.9-0.4c-0.8-0.2-1.7-0.6-2.6-1.2
			v9.1h-3.7V269h3.7v2.3c0.9-0.8,1.9-1.5,3-2.1c1.1-0.6,2.3-0.8,3.6-0.8c2.5,0,4.4,1,5.8,3C656.8,273.3,657.4,275.9,657.4,279.3z
			 M653.7,279.7c0-2.5-0.4-4.4-1.2-5.8c-0.8-1.4-2.1-2.1-3.9-2.1c-1,0-2,0.2-3,0.7c-1,0.5-1.9,1.1-2.8,1.8v12.3c1,0.5,1.8,0.8,2.5,1
			c0.7,0.2,1.5,0.3,2.3,0.3c1.9,0,3.4-0.7,4.4-2.1C653.1,284.4,653.7,282.4,653.7,279.7z"/>
		<path class="st3" d="M679.3,279.9c0,3.7-0.9,6.5-2.7,8.5c-1.8,2-4.1,3-7.1,3c-3,0-5.4-1-7.1-3.1c-1.7-2.1-2.6-4.9-2.6-8.4
			c0-3.6,0.9-6.5,2.7-8.5c1.8-2,4.1-3,7.1-3c2.9,0,5.3,1,7.1,3C678.4,273.4,679.3,276.2,679.3,279.9z M675.5,279.9
			c0-2.8-0.5-4.9-1.5-6.3c-1-1.4-2.5-2.1-4.4-2.1c-1.9,0-3.4,0.7-4.4,2.1c-1,1.4-1.6,3.5-1.6,6.3c0,2.7,0.5,4.8,1.6,6.2
			c1,1.4,2.5,2.1,4.4,2.1c1.9,0,3.3-0.7,4.4-2.1C675,284.7,675.5,282.6,675.5,279.9z"/>
		<path class="st3" d="M709.6,269l-5.5,21.8h-3.4l-5.3-16.8l-5.3,16.8h-3.4l-5.6-21.8h3.8l3.8,16.9l5.2-16.9h3l5.3,16.9l3.6-16.9
			H709.6z"/>
		<path class="st3" d="M722.4,291.3c-3.5,0-6.2-1-8.1-2.9c-1.9-2-2.9-4.7-2.9-8.3c0-3.5,0.9-6.4,2.8-8.5c1.9-2.1,4.3-3.2,7.3-3.2
			c1.4,0,2.5,0.2,3.6,0.6c1,0.4,1.9,1,2.7,1.8c0.8,0.8,1.4,1.8,1.8,3.1c0.4,1.2,0.6,2.7,0.6,4.4v2h-15.1c0,2.5,0.6,4.5,1.9,5.8
			c1.3,1.3,3,2,5.3,2c0.8,0,1.6-0.1,2.4-0.3c0.8-0.2,1.5-0.4,2.1-0.7c0.7-0.3,1.2-0.6,1.7-0.9c0.5-0.3,0.8-0.5,1.1-0.8h0.2v4
			c-0.4,0.2-1,0.4-1.6,0.6c-0.6,0.3-1.2,0.4-1.7,0.6c-0.7,0.2-1.4,0.3-1.9,0.4C724,291.2,723.3,291.3,722.4,291.3z M726.7,277.4
			c0-1-0.1-1.8-0.4-2.6c-0.2-0.7-0.5-1.3-0.9-1.8c-0.4-0.5-1-1-1.6-1.2c-0.7-0.3-1.5-0.4-2.5-0.4c-1,0-1.8,0.1-2.5,0.4
			c-0.7,0.3-1.3,0.7-1.9,1.3c-0.5,0.6-1,1.2-1.2,1.9c-0.3,0.7-0.5,1.5-0.5,2.4H726.7z"/>
		<path class="st3" d="M745.6,272.9h-0.2c-0.3-0.1-0.6-0.1-0.9-0.1c-0.3,0-0.7,0-1.1,0c-1,0-2,0.2-2.9,0.6c-1,0.4-1.9,1.1-2.8,1.9
			v15.5h-3.7V269h3.7v3.2c1.3-1.2,2.5-2,3.5-2.5c1-0.5,2-0.7,2.9-0.7c0.4,0,0.7,0,0.9,0c0.2,0,0.4,0,0.6,0.1V272.9z"/>
	</g>
</g>
<g id="Layer_3" class="st5">
	<g id="Layer_2" class="st6">
		<rect x="648.1" y="-691.3" class="st4" width="22.2" height="22.2"/>
		<rect x="648.1" y="-664.1" class="st3" width="22.2" height="22.2"/>
		<rect x="648.1" y="-636.4" class="st7" width="22.2" height="22.2"/>
		<rect x="648.1" y="-607.9" class="st8" width="22.2" height="22.2"/>
	</g>
	<g class="st6">
		<path d="M677.6-682.2c0.4-0.1,0.9-0.1,1.6-0.1c0.8,0,1.5,0.2,1.8,0.5c0.4,0.3,0.6,0.8,0.6,1.4c0,0.6-0.2,1.1-0.5,1.4
			c-0.4,0.5-1.2,0.7-2,0.7c-0.3,0-0.5,0-0.7-0.1v2.6h-0.8V-682.2z M678.4-679.1c0.2,0,0.4,0.1,0.7,0.1c1,0,1.6-0.5,1.6-1.4
			c0-0.9-0.6-1.3-1.6-1.3c-0.4,0-0.7,0-0.8,0.1V-679.1z"/>
		<path d="M685.8-676.9c0,0.4,0,0.8,0.1,1.1h-0.8l-0.1-0.6h0c-0.3,0.4-0.8,0.7-1.4,0.7c-1,0-1.4-0.7-1.4-1.4c0-1.1,1-1.8,2.8-1.8
			v-0.1c0-0.4-0.1-1.1-1.1-1.1c-0.4,0-0.9,0.1-1.2,0.4l-0.2-0.6c0.4-0.2,1-0.4,1.6-0.4c1.5,0,1.8,1,1.8,1.9V-676.9z M685-678.2
			c-0.9,0-2,0.1-2,1.1c0,0.6,0.4,0.8,0.8,0.8c0.6,0,1-0.4,1.2-0.8c0-0.1,0-0.2,0-0.3V-678.2z"/>
		<path d="M687.2-679.2c0-0.5,0-0.9,0-1.3h0.8l0,0.8h0c0.2-0.4,0.8-0.9,1.6-0.9c0.7,0,1.7,0.4,1.7,2v2.8h-0.9v-2.7
			c0-0.8-0.3-1.4-1.1-1.4c-0.6,0-1,0.4-1.2,0.9c0,0.1-0.1,0.3-0.1,0.4v2.8h-0.9V-679.2z"/>
		<path d="M693.6-681.6v1.1h1.2v0.7h-1.2v2.5c0,0.6,0.2,0.9,0.6,0.9c0.2,0,0.4,0,0.5-0.1l0,0.7c-0.2,0.1-0.4,0.1-0.8,0.1
			c-0.4,0-0.7-0.1-0.9-0.4c-0.2-0.3-0.3-0.7-0.3-1.2v-2.6H692v-0.7h0.7v-0.9L693.6-681.6z"/>
		<path d="M697.7-675.6c-1.3,0-2.3-0.9-2.3-2.4c0-1.6,1-2.5,2.3-2.5c1.4,0,2.3,1,2.3,2.4C700-676.4,698.8-675.6,697.7-675.6
			L697.7-675.6z M697.7-676.3c0.8,0,1.4-0.8,1.4-1.8c0-0.8-0.4-1.8-1.4-1.8c-1,0-1.4,0.9-1.4,1.8
			C696.3-677.1,696.9-676.3,697.7-676.3L697.7-676.3z"/>
		<path d="M701.1-679.2c0-0.5,0-0.9,0-1.3h0.8l0,0.8h0c0.2-0.4,0.8-0.9,1.6-0.9c0.7,0,1.7,0.4,1.7,2v2.8h-0.9v-2.7
			c0-0.8-0.3-1.4-1.1-1.4c-0.6,0-1,0.4-1.2,0.9c0,0.1-0.1,0.3-0.1,0.4v2.8h-0.9V-679.2z"/>
		<path d="M707-678c0,1.2,0.8,1.6,1.6,1.6c0.6,0,1-0.1,1.3-0.2l0.2,0.6c-0.3,0.1-0.8,0.3-1.6,0.3c-1.4,0-2.3-1-2.3-2.4
			c0-1.4,0.8-2.6,2.2-2.6c1.5,0,1.9,1.4,1.9,2.2c0,0.2,0,0.3,0,0.4L707-678z M709.5-678.6c0-0.5-0.2-1.4-1.2-1.4
			c-0.9,0-1.2,0.8-1.3,1.4H709.5z"/>
		<path d="M716.9-681.5c-0.2,0-0.4,0-0.6,0c-1.4,0.2-2.1,1.2-2.2,2.3h0c0.3-0.4,0.8-0.7,1.5-0.7c1.1,0,1.9,0.8,1.9,2
			c0,1.2-0.8,2.2-2.1,2.2c-1.3,0-2.2-1.1-2.2-2.7c0-1.2,0.4-2.2,1.1-2.9c0.5-0.5,1.2-0.8,2-0.9c0.3,0,0.5,0,0.6,0V-681.5z
			 M715.4-676.3c0.7,0,1.2-0.6,1.2-1.5c0-0.9-0.5-1.5-1.3-1.5c-0.5,0-1,0.3-1.2,0.8c0,0.1-0.1,0.2-0.1,0.4
			C714-677.1,714.5-676.3,715.4-676.3L715.4-676.3z"/>
		<path d="M720.9-675.8v-1.7H718v-0.6l2.8-4.1h0.9v4h0.9v0.7h-0.9v1.7H720.9z M720.9-678.1v-2.1c0-0.3,0-0.7,0-1h0
			c-0.2,0.4-0.4,0.6-0.5,0.9l-1.6,2.2v0H720.9z"/>
		<path d="M727.4-682.1v0.6l-2.8,5.8h-0.9l2.7-5.6v0h-3.1v-0.7H727.4z"/>
		<path d="M731.5-682.3v3.9c0,1.5,0.7,2.1,1.5,2.1c1,0,1.6-0.6,1.6-2.1v-3.9h0.9v3.8c0,2-1.1,2.8-2.5,2.8c-1.3,0-2.4-0.8-2.4-2.8
			v-3.9H731.5z"/>
	</g>
	<g class="st6">
		<path d="M677.6-656.2c0.4-0.1,0.9-0.1,1.6-0.1c0.8,0,1.5,0.2,1.8,0.5c0.4,0.3,0.6,0.8,0.6,1.4c0,0.6-0.2,1.1-0.5,1.4
			c-0.4,0.5-1.2,0.7-2,0.7c-0.3,0-0.5,0-0.7-0.1v2.6h-0.8V-656.2z M678.4-653c0.2,0,0.4,0.1,0.7,0.1c1,0,1.6-0.5,1.6-1.4
			c0-0.9-0.6-1.3-1.6-1.3c-0.4,0-0.7,0-0.8,0.1V-653z"/>
		<path d="M685.8-650.8c0,0.4,0,0.8,0.1,1.1h-0.8l-0.1-0.6h0c-0.3,0.4-0.8,0.7-1.4,0.7c-1,0-1.4-0.7-1.4-1.4c0-1.1,1-1.8,2.8-1.8
			v-0.1c0-0.4-0.1-1.1-1.1-1.1c-0.4,0-0.9,0.1-1.2,0.4l-0.2-0.6c0.4-0.2,1-0.4,1.6-0.4c1.5,0,1.8,1,1.8,1.9V-650.8z M685-652.1
			c-0.9,0-2,0.1-2,1.1c0,0.6,0.4,0.8,0.8,0.8c0.6,0,1-0.4,1.2-0.8c0-0.1,0-0.2,0-0.3V-652.1z"/>
		<path d="M687.2-653.2c0-0.5,0-0.9,0-1.3h0.8l0,0.8h0c0.2-0.4,0.8-0.9,1.6-0.9c0.7,0,1.7,0.4,1.7,2v2.8h-0.9v-2.7
			c0-0.8-0.3-1.4-1.1-1.4c-0.6,0-1,0.4-1.2,0.9c0,0.1-0.1,0.3-0.1,0.4v2.9h-0.9V-653.2z"/>
		<path d="M693.6-655.6v1.1h1.2v0.7h-1.2v2.5c0,0.6,0.2,0.9,0.6,0.9c0.2,0,0.4,0,0.5-0.1l0,0.7c-0.2,0.1-0.4,0.1-0.8,0.1
			c-0.4,0-0.7-0.1-0.9-0.4c-0.2-0.3-0.3-0.7-0.3-1.2v-2.6H692v-0.7h0.7v-0.9L693.6-655.6z"/>
		<path d="M697.7-649.6c-1.3,0-2.3-0.9-2.3-2.4c0-1.6,1-2.5,2.3-2.5c1.4,0,2.3,1,2.3,2.4C700-650.4,698.8-649.6,697.7-649.6
			L697.7-649.6z M697.7-650.2c0.8,0,1.4-0.8,1.4-1.8c0-0.8-0.4-1.8-1.4-1.8c-1,0-1.4,0.9-1.4,1.8C696.3-651,696.9-650.2,697.7-650.2
			L697.7-650.2z"/>
		<path d="M701.1-653.2c0-0.5,0-0.9,0-1.3h0.8l0,0.8h0c0.2-0.4,0.8-0.9,1.6-0.9c0.7,0,1.7,0.4,1.7,2v2.8h-0.9v-2.7
			c0-0.8-0.3-1.4-1.1-1.4c-0.6,0-1,0.4-1.2,0.9c0,0.1-0.1,0.3-0.1,0.4v2.9h-0.9V-653.2z"/>
		<path d="M707-651.9c0,1.2,0.8,1.6,1.6,1.6c0.6,0,1-0.1,1.3-0.2l0.2,0.6c-0.3,0.1-0.8,0.3-1.6,0.3c-1.4,0-2.3-1-2.3-2.4
			c0-1.4,0.8-2.6,2.2-2.6c1.5,0,1.9,1.4,1.9,2.2c0,0.2,0,0.3,0,0.4L707-651.9z M709.5-652.5c0-0.5-0.2-1.4-1.2-1.4
			c-0.9,0-1.2,0.8-1.3,1.4H709.5z"/>
		<path d="M717.4-656.1v0.6l-2.8,5.8h-0.9l2.7-5.6v0h-3.1v-0.7H717.4z"/>
		<path d="M720.9-649.7v-1.7H718v-0.6l2.8-4.1h0.9v4h0.9v0.7h-0.9v1.7H720.9z M720.9-652.1v-2.1c0-0.3,0-0.7,0-1h0
			c-0.2,0.4-0.4,0.6-0.5,0.9l-1.6,2.2v0H720.9z"/>
		<path d="M726.9-655.5c-0.2,0-0.4,0-0.6,0c-1.4,0.2-2.1,1.2-2.2,2.3h0c0.3-0.4,0.8-0.7,1.5-0.7c1.1,0,1.9,0.8,1.9,2
			c0,1.2-0.8,2.2-2.1,2.2c-1.3,0-2.2-1.1-2.2-2.7c0-1.2,0.4-2.2,1.1-2.9c0.5-0.5,1.2-0.8,2-0.9c0.3,0,0.5,0,0.6,0V-655.5z
			 M725.4-650.3c0.7,0,1.2-0.6,1.2-1.5c0-0.9-0.5-1.5-1.3-1.5c-0.5,0-1,0.3-1.2,0.8c0,0.1-0.1,0.2-0.1,0.4
			C724-651,724.5-650.3,725.4-650.3L725.4-650.3z"/>
		<path d="M730.1-655.3L730.1-655.3l-1.1,0.6l-0.2-0.7l1.4-0.7h0.7v6.3h-0.8V-655.3z"/>
		<path d="M736.5-656.3v3.9c0,1.5,0.7,2.1,1.5,2.1c1,0,1.6-0.6,1.6-2.1v-3.9h0.9v3.8c0,2-1.1,2.8-2.5,2.8c-1.3,0-2.4-0.8-2.4-2.8
			v-3.9H736.5z"/>
	</g>
	<g class="st6">
		<path d="M677.6-627.3c0.4-0.1,0.9-0.1,1.6-0.1c0.8,0,1.5,0.2,1.8,0.5c0.4,0.3,0.6,0.8,0.6,1.4c0,0.6-0.2,1.1-0.5,1.4
			c-0.4,0.5-1.2,0.7-2,0.7c-0.3,0-0.5,0-0.7-0.1v2.6h-0.8V-627.3z M678.4-624.1c0.2,0,0.4,0.1,0.7,0.1c1,0,1.6-0.5,1.6-1.4
			c0-0.9-0.6-1.3-1.6-1.3c-0.4,0-0.7,0-0.8,0.1V-624.1z"/>
		<path d="M685.8-621.9c0,0.4,0,0.8,0.1,1.1h-0.8l-0.1-0.6h0c-0.3,0.4-0.8,0.7-1.4,0.7c-1,0-1.4-0.7-1.4-1.4c0-1.1,1-1.8,2.8-1.8
			v-0.1c0-0.4-0.1-1.1-1.1-1.1c-0.4,0-0.9,0.1-1.2,0.4l-0.2-0.6c0.4-0.2,1-0.4,1.6-0.4c1.5,0,1.8,1,1.8,1.9V-621.9z M685-623.2
			c-0.9,0-2,0.1-2,1.1c0,0.6,0.4,0.8,0.8,0.8c0.6,0,1-0.4,1.2-0.8c0-0.1,0-0.2,0-0.3V-623.2z"/>
		<path d="M687.2-624.3c0-0.5,0-0.9,0-1.3h0.8l0,0.8h0c0.2-0.4,0.8-0.9,1.6-0.9c0.7,0,1.7,0.4,1.7,2v2.8h-0.9v-2.7
			c0-0.8-0.3-1.4-1.1-1.4c-0.6,0-1,0.4-1.2,0.9c0,0.1-0.1,0.3-0.1,0.4v2.9h-0.9V-624.3z"/>
		<path d="M693.6-626.7v1.1h1.2v0.7h-1.2v2.5c0,0.6,0.2,0.9,0.6,0.9c0.2,0,0.4,0,0.5-0.1l0,0.7c-0.2,0.1-0.4,0.1-0.8,0.1
			c-0.4,0-0.7-0.1-0.9-0.4c-0.2-0.3-0.3-0.7-0.3-1.2v-2.6H692v-0.7h0.7v-0.9L693.6-626.7z"/>
		<path d="M697.7-620.7c-1.3,0-2.3-0.9-2.3-2.4c0-1.6,1-2.5,2.3-2.5c1.4,0,2.3,1,2.3,2.4C700-621.5,698.8-620.7,697.7-620.7
			L697.7-620.7z M697.7-621.3c0.8,0,1.4-0.8,1.4-1.8c0-0.8-0.4-1.8-1.4-1.8c-1,0-1.4,0.9-1.4,1.8
			C696.3-622.1,696.9-621.3,697.7-621.3L697.7-621.3z"/>
		<path d="M701.1-624.3c0-0.5,0-0.9,0-1.3h0.8l0,0.8h0c0.2-0.4,0.8-0.9,1.6-0.9c0.7,0,1.7,0.4,1.7,2v2.8h-0.9v-2.7
			c0-0.8-0.3-1.4-1.1-1.4c-0.6,0-1,0.4-1.2,0.9c0,0.1-0.1,0.3-0.1,0.4v2.9h-0.9V-624.3z"/>
		<path d="M707-623c0,1.2,0.8,1.6,1.6,1.6c0.6,0,1-0.1,1.3-0.2l0.2,0.6c-0.3,0.1-0.8,0.3-1.6,0.3c-1.4,0-2.3-1-2.3-2.4
			c0-1.4,0.8-2.6,2.2-2.6c1.5,0,1.9,1.4,1.9,2.2c0,0.2,0,0.3,0,0.4L707-623z M709.5-623.6c0-0.5-0.2-1.4-1.2-1.4
			c-0.9,0-1.2,0.8-1.3,1.4H709.5z"/>
		<path d="M715.1-626.4L715.1-626.4l-1.1,0.6l-0.2-0.7l1.4-0.7h0.7v6.3h-0.8V-626.4z"/>
		<path d="M720.3-620.7c-1.2,0-2.1-1.2-2.1-3.3c0-2.1,0.9-3.3,2.2-3.3c1.3,0,2.1,1.2,2.1,3.2C722.5-621.9,721.7-620.7,720.3-620.7
			L720.3-620.7z M720.3-621.4c0.9,0,1.3-1,1.3-2.6c0-1.6-0.4-2.6-1.3-2.6c-0.8,0-1.3,1-1.3,2.6C719-622.4,719.5-621.4,720.3-621.4
			L720.3-621.4z"/>
		<path d="M723.8-621.4c0.2,0,0.4,0,0.7,0c0.5-0.1,1-0.3,1.3-0.6c0.4-0.4,0.7-0.9,0.8-1.7h0c-0.4,0.4-0.9,0.7-1.5,0.7
			c-1.1,0-1.9-0.9-1.9-2c0-1.2,0.9-2.2,2.2-2.2c1.3,0,2.1,1,2.1,2.7c0,1.4-0.5,2.4-1.1,3c-0.5,0.5-1.2,0.8-1.8,0.8
			c-0.3,0-0.6,0.1-0.8,0V-621.4z M725.3-626.6c-0.7,0-1.2,0.6-1.2,1.5c0,0.8,0.5,1.3,1.2,1.3c0.6,0,1-0.3,1.3-0.7
			c0-0.1,0.1-0.2,0.1-0.3C726.6-625.8,726.2-626.6,725.3-626.6L725.3-626.6z"/>
		<path d="M731.5-627.4v3.9c0,1.5,0.7,2.1,1.5,2.1c1,0,1.6-0.6,1.6-2.1v-3.9h0.9v3.8c0,2-1.1,2.8-2.5,2.8c-1.3,0-2.4-0.8-2.4-2.8
			v-3.9H731.5z"/>
	</g>
	<g class="st6">
		<path d="M677.6-599.6c0.4-0.1,0.9-0.1,1.6-0.1c0.8,0,1.5,0.2,1.8,0.5c0.4,0.3,0.6,0.8,0.6,1.4c0,0.6-0.2,1.1-0.5,1.4
			c-0.4,0.5-1.2,0.7-2,0.7c-0.3,0-0.5,0-0.7-0.1v2.6h-0.8V-599.6z M678.4-596.5c0.2,0,0.4,0.1,0.7,0.1c1,0,1.6-0.5,1.6-1.4
			c0-0.9-0.6-1.3-1.6-1.3c-0.4,0-0.7,0-0.8,0.1V-596.5z"/>
		<path d="M685.8-594.3c0,0.4,0,0.8,0.1,1.1h-0.8l-0.1-0.6h0c-0.3,0.4-0.8,0.7-1.4,0.7c-1,0-1.4-0.7-1.4-1.4c0-1.1,1-1.8,2.8-1.8
			v-0.1c0-0.4-0.1-1.1-1.1-1.1c-0.4,0-0.9,0.1-1.2,0.4l-0.2-0.6c0.4-0.2,1-0.4,1.6-0.4c1.5,0,1.8,1,1.8,1.9V-594.3z M685-595.5
			c-0.9,0-2,0.1-2,1.1c0,0.6,0.4,0.8,0.8,0.8c0.6,0,1-0.4,1.2-0.8c0-0.1,0-0.2,0-0.3V-595.5z"/>
		<path d="M687.2-596.6c0-0.5,0-0.9,0-1.3h0.8l0,0.8h0c0.2-0.4,0.8-0.9,1.6-0.9c0.7,0,1.7,0.4,1.7,2v2.8h-0.9v-2.7
			c0-0.8-0.3-1.4-1.1-1.4c-0.6,0-1,0.4-1.2,0.9c0,0.1-0.1,0.3-0.1,0.4v2.9h-0.9V-596.6z"/>
		<path d="M693.6-599v1.1h1.2v0.7h-1.2v2.5c0,0.6,0.2,0.9,0.6,0.9c0.2,0,0.4,0,0.5-0.1l0,0.7c-0.2,0.1-0.4,0.1-0.8,0.1
			c-0.4,0-0.7-0.1-0.9-0.4c-0.2-0.3-0.3-0.7-0.3-1.2v-2.6H692v-0.7h0.7v-0.9L693.6-599z"/>
		<path d="M697.7-593c-1.3,0-2.3-0.9-2.3-2.4c0-1.6,1-2.5,2.3-2.5c1.4,0,2.3,1,2.3,2.4C700-593.8,698.8-593,697.7-593L697.7-593z
			 M697.7-593.7c0.8,0,1.4-0.8,1.4-1.8c0-0.8-0.4-1.8-1.4-1.8c-1,0-1.4,0.9-1.4,1.8C696.3-594.5,696.9-593.7,697.7-593.7
			L697.7-593.7z"/>
		<path d="M701.1-596.6c0-0.5,0-0.9,0-1.3h0.8l0,0.8h0c0.2-0.4,0.8-0.9,1.6-0.9c0.7,0,1.7,0.4,1.7,2v2.8h-0.9v-2.7
			c0-0.8-0.3-1.4-1.1-1.4c-0.6,0-1,0.4-1.2,0.9c0,0.1-0.1,0.3-0.1,0.4v2.9h-0.9V-596.6z"/>
		<path d="M707-595.4c0,1.2,0.8,1.6,1.6,1.6c0.6,0,1-0.1,1.3-0.2l0.2,0.6c-0.3,0.1-0.8,0.3-1.6,0.3c-1.4,0-2.3-1-2.3-2.4
			c0-1.4,0.8-2.6,2.2-2.6c1.5,0,1.9,1.4,1.9,2.2c0,0.2,0,0.3,0,0.4L707-595.4z M709.5-596c0-0.5-0.2-1.4-1.2-1.4
			c-0.9,0-1.2,0.8-1.3,1.4H709.5z"/>
		<path d="M713.4-594.1c0.2,0.1,0.8,0.4,1.4,0.4c1.1,0,1.4-0.7,1.4-1.2c0-0.9-0.8-1.3-1.6-1.3h-0.5v-0.6h0.5c0.6,0,1.4-0.3,1.4-1.1
			c0-0.5-0.3-1-1.1-1c-0.5,0-1,0.2-1.3,0.4l-0.2-0.6c0.3-0.2,1-0.5,1.7-0.5c1.2,0,1.8,0.7,1.8,1.5c0,0.7-0.4,1.2-1.2,1.5v0
			c0.8,0.1,1.4,0.7,1.4,1.6c0,1-0.8,1.9-2.3,1.9c-0.7,0-1.3-0.2-1.6-0.4L713.4-594.1z"/>
		<path d="M720.9-593.1v-1.7H718v-0.6l2.8-4.1h0.9v4h0.9v0.7h-0.9v1.7H720.9z M720.9-595.5v-2.1c0-0.3,0-0.7,0-1h0
			c-0.2,0.4-0.4,0.6-0.5,0.9l-1.6,2.2v0H720.9z"/>
		<path d="M723.8-593.7c0.2,0,0.4,0,0.7,0c0.5-0.1,1-0.3,1.3-0.6c0.4-0.4,0.7-0.9,0.8-1.7h0c-0.4,0.4-0.9,0.7-1.5,0.7
			c-1.1,0-1.9-0.9-1.9-2c0-1.2,0.9-2.2,2.2-2.2c1.3,0,2.1,1,2.1,2.7c0,1.4-0.5,2.4-1.1,3c-0.5,0.5-1.2,0.8-1.8,0.8
			c-0.3,0-0.6,0.1-0.8,0V-593.7z M725.3-598.9c-0.7,0-1.2,0.6-1.2,1.5c0,0.8,0.5,1.3,1.2,1.3c0.6,0,1-0.3,1.3-0.7
			c0-0.1,0.1-0.2,0.1-0.3C726.6-598.1,726.2-598.9,725.3-598.9L725.3-598.9z"/>
		<path d="M731.5-599.7v3.9c0,1.5,0.7,2.1,1.5,2.1c1,0,1.6-0.6,1.6-2.1v-3.9h0.9v3.8c0,2-1.1,2.8-2.5,2.8c-1.3,0-2.4-0.8-2.4-2.8
			v-3.9H731.5z"/>
	</g>
</g>
</svg>
