<?xml version="1.0" encoding="utf-8"?>
<!-- Generator: Adobe Illustrator 21.0.2, SVG Export Plug-In . SVG Version: 6.00 Build 0)  -->
<svg version="1.1" id="Layer_1" xmlns="http://www.w3.org/2000/svg" xmlns:xlink="http://www.w3.org/1999/xlink" x="0px" y="0px"
	 viewBox="0 0 72 72" style="enable-background:new 0 0 72 72;" xml:space="preserve">
<style type="text/css">
	.st0{fill-rule:evenodd;clip-rule:evenodd;fill:#778293;}
</style>
<path class="st0" d="M51.1,1.9c1.4,0.1,3.4,0.4,4.4,1C42.2,16.2,28.9,29.5,15.7,42.8c0,0-0.1,0-0.1,0c-1.9,0.1-3.7,0.2-5.6,0.3
	C23.7,29.4,37.4,15.7,51.1,1.9z M59.4,4.9c2.4,2.2,4.8,4.4,7.2,6.5c-4.7,4.7-9.4,9.4-14.1,14.1c-8.9,9-17.8,17.9-26.8,26.9
	c-1.4-0.2-5-0.6-5.9-1.5c-0.4-1.8-0.8-3.5-1.3-5.3C32.3,32.1,45.9,18.5,59.4,4.9z M68.7,15.5c0.6,0.6,1.3,3.3,0.8,4.5
	C56,33.5,42.5,47.1,29,60.6c0,0-0.1,0-0.1,0c-0.1-1.7-0.2-3.4-0.3-5.1C41.9,42.2,55.3,28.8,68.7,15.5z M12.5,47.2c0.8,0,1.6,0,2.4,0
	c0.5,2.5,1,5.1,1.5,7.6c2.7,0.6,5.4,1.2,8.2,1.7c0.1,2.5,0.2,5,0.3,7.5c-4.1,1.3-8.1,2.5-12.2,3.8c-1.7-3.6-5.2-7.8-9.2-9.1
	c1.3-3.8,2.5-7.5,3.8-11.3C9,47.3,10.8,47.2,12.5,47.2z M2.1,62.7c2.7,1.1,5.3,3.8,6.5,6.3c-1.2,0.4-2.5,0.8-3.7,1.1
	C-0.3,71.2,1,65.2,2.1,62.7z"/>
</svg>
